<svg width="47" height="32" viewBox="0 0 47 32" fill="none" xmlns="http://www.w3.org/2000/svg">
<path fill-rule="evenodd" clip-rule="evenodd" d="M30.8287 10.4401C30.0688 10.4401 29.4517 11.0497 29.4517 11.8012C29.4517 12.5532 30.0688 13.1615 30.8287 13.1615C31.59 13.1615 32.2067 12.5532 32.2067 11.8012C32.2067 11.0497 31.59 10.4401 30.8287 10.4401ZM10.9633 15.0004C10.6101 14.9779 9.79203 14.9253 9.79203 14.1981C9.79203 13.3206 10.9691 13.3206 11.4108 13.3206C12.1877 13.3206 13.1929 13.5469 13.9117 13.7596C13.9117 13.7596 14.3118 13.8993 14.6524 14.0416L14.6841 14.0505V11.647L14.6416 11.6341C13.7931 11.3411 12.808 11.0595 10.9807 11.0595C7.83045 11.0595 6.71428 12.8715 6.71428 14.4253C6.71428 15.3201 7.10275 17.4278 10.7095 17.6705L10.7128 17.6707C11.0219 17.6894 11.8279 17.7382 11.8279 18.487C11.8279 19.1076 11.1633 19.4728 10.0458 19.4728C8.82131 19.4728 7.63264 19.1651 6.9112 18.872V21.3467C7.99157 21.6274 9.20978 21.7662 10.6374 21.7662C13.7165 21.7662 15.0968 20.0514 15.0968 18.3513C15.0968 16.4243 13.5532 15.172 10.9633 15.0004ZM20.2605 13.9322L20.2747 13.8957H23.5731C23.4791 14.1924 22.8906 15.9823 21.5489 17.663C21.5489 17.663 23.0432 20.2495 23.3847 21.6526H19.931C19.931 21.6526 19.5184 19.7897 18.6833 18.552V21.6526H15.7993V11.6231L18.6833 11.0595V16.5932C19.7051 15.3724 20.1605 14.1917 20.2605 13.9322ZM37.4908 21.6526V11.5532L40.2857 11.0595V21.6526H37.4908ZM27.8561 13.791C25.2742 13.8732 23.9624 15.0181 23.9624 17.2939V21.6526H26.7802V18.0975C26.7802 16.7355 26.961 16.1516 28.5977 16.0959V13.8312C28.3224 13.7733 27.8561 13.791 27.8561 13.791ZM29.4324 21.6526V13.9046H32.2269V21.6526H29.4324ZM33.4111 11.5532L36.2042 11.0595V21.6526H33.4111V11.5532Z" fill="white" fill-opacity="0.5"/>
</svg>
