<svg width="47" height="32" viewBox="0 0 47 32" fill="none" xmlns="http://www.w3.org/2000/svg">
<path d="M40.9773 13.1207C40.5238 12.7839 39.8375 12.614 38.9379 12.614H36.5818L35.706 17.7691H32.6195L32.8179 16.5995H34.6771L34.8974 15.2859L33.0392 15.2888L33.2382 14.1244H35.1533L35.4081 12.6143H31.5189L30.6874 17.5042H29.2602L30.0973 12.6141H28.0643L27.2328 17.5039H25.8425L26.6804 12.6141H24.6484L23.7715 17.7691H20.6628L20.8593 16.5995H22.7261L22.9466 15.2934L21.0817 15.2914L21.2796 14.1247H23.2161L23.4693 12.614H11.35L10.6602 16.6989L9.28649 12.614H7.17721L6.04196 19.2806H8.05635L8.74349 15.083L10.0765 19.2806H17.2959L18.1737 14.1241H19.3028L18.425 19.2806H37.4207L37.9714 16.0256L38.8623 19.2806H40.8778L39.9546 16.6209L40.1658 16.5716C40.631 16.4635 40.9938 16.2313 41.2465 15.8832C41.4989 15.5319 41.6275 15.0809 41.6275 14.5391C41.6275 13.9084 41.4146 13.4443 40.9767 13.1203L40.9773 13.1207ZM15.543 17.7691H12.4595L12.6587 16.5995H14.5927L14.812 15.2822H12.8965L13.081 14.1248H16.16L15.5424 17.769L15.543 17.7691ZM39.3166 15.5235C39.114 15.6771 38.8201 15.7519 38.4183 15.7519H38.0199L38.3255 13.9629H38.6185C38.9522 13.9629 39.1955 14.0209 39.3634 14.1391C39.4944 14.2319 39.6503 14.4154 39.6503 14.7623C39.6498 15.182 39.4685 15.4075 39.3161 15.5235L39.3166 15.5235Z" fill="white" fill-opacity="0.5"/>
</svg>
