<svg width="47" height="32" viewBox="0 0 47 32" fill="none" xmlns="http://www.w3.org/2000/svg">
<path fill-rule="evenodd" clip-rule="evenodd" d="M23.8357 22.8759C22.2356 24.247 20.16 25.0746 17.8919 25.0746C12.8311 25.0746 8.72858 20.9539 8.72858 15.8707C8.72858 10.7874 12.8311 6.66669 17.8919 6.66669C20.16 6.66669 22.2356 7.49435 23.8357 8.86539C25.4358 7.49435 27.5114 6.66669 29.7795 6.66669C34.8403 6.66669 38.9429 10.7874 38.9429 15.8707C38.9429 20.9539 34.8403 25.0746 29.7795 25.0746C27.5114 25.0746 25.4358 24.247 23.8357 22.8759Z" fill="white" fill-opacity="0.5"/>
<path fill-rule="evenodd" clip-rule="evenodd" d="M23.8357 22.8759C25.806 21.1878 27.0553 18.6758 27.0553 15.8707C27.0553 13.0656 25.806 10.5536 23.8357 8.86539C25.4358 7.49435 27.5114 6.66669 29.7795 6.66669C34.8403 6.66669 38.9429 10.7874 38.9429 15.8707C38.9429 20.9539 34.8403 25.0746 29.7795 25.0746C27.5114 25.0746 25.4358 24.247 23.8357 22.8759Z" fill="white" fill-opacity="0.5"/>
<path fill-rule="evenodd" clip-rule="evenodd" d="M23.8357 8.86542C25.806 10.5536 27.0553 13.0656 27.0553 15.8707C27.0553 18.6757 25.806 21.1877 23.8357 22.8759C21.8655 21.1877 20.6162 18.6757 20.6162 15.8707C20.6162 13.0656 21.8655 10.5536 23.8357 8.86542Z" fill="white" fill-opacity="0.5"/>
</svg>
