<svg width="47" height="32" viewBox="0 0 47 32" fill="none" xmlns="http://www.w3.org/2000/svg">
<path fill-rule="evenodd" clip-rule="evenodd" d="M25.2285 16.6012V16.5994C25.1317 16.6066 24.6327 16.6372 23.5194 16.6372C22.6305 16.6372 22.0047 16.6102 21.7847 16.5994V16.6021C18.3629 16.4483 15.8088 15.8395 15.8088 15.111C15.8088 14.3835 18.3629 13.7746 21.7847 13.6181V15.996C22.0082 16.0121 22.6489 16.0508 23.5343 16.0508C24.5966 16.0508 25.1291 16.0058 25.2285 15.9969V13.6199C28.6433 13.7755 31.1912 14.3844 31.1912 15.111C31.1912 15.8395 28.6433 16.4465 25.2285 16.6012ZM25.2285 13.3726V11.2448H29.9934V8H17.0198V11.2448H21.7847V13.3717C17.9122 13.5534 15 14.3376 15 15.2765C15 16.2154 17.9122 16.9987 21.7847 17.1813V24H25.2285V17.1795C29.0948 16.9978 32 16.2145 32 15.2765C32 14.3385 29.0948 13.5552 25.2285 13.3726Z" fill="white" fill-opacity="0.5"/>
</svg>
