<svg width="47" height="32" viewBox="0 0 47 32" fill="none" xmlns="http://www.w3.org/2000/svg">
<path d="M20.1081 21.4438H17.4506L19.1128 11.239H21.7701L20.1081 21.4438Z" fill="white" fill-opacity="0.5"/>
<path d="M29.7407 11.4885C29.2165 11.282 28.3852 11.054 27.3572 11.054C24.7328 11.054 22.8847 12.4435 22.8734 14.4301C22.8516 15.8958 24.1966 16.7099 25.2025 17.1986C26.2306 17.698 26.5801 18.024 26.5801 18.4691C26.5697 19.1528 25.7493 19.4679 24.9842 19.4679C23.9232 19.4679 23.3547 19.3054 22.4908 18.9251L22.1409 18.762L21.769 21.0528C22.3923 21.3347 23.5406 21.5849 24.7328 21.5959C27.5212 21.5959 29.3366 20.2279 29.3581 18.1108C29.3687 16.9491 28.6585 16.059 27.1274 15.3317C26.1979 14.8647 25.6287 14.5499 25.6287 14.0721C25.6396 13.6378 26.1102 13.193 27.1594 13.193C28.0233 13.1712 28.6581 13.3774 29.1389 13.5837L29.3793 13.6921L29.7407 11.4885Z" fill="white" fill-opacity="0.5"/>
<path d="M33.2741 17.8286C33.493 17.2423 34.3351 14.9733 34.3351 14.9733C34.3241 14.9951 34.5535 14.3763 34.6848 13.9963L34.8705 14.8756C34.8705 14.8756 35.3737 17.3183 35.483 17.8286C35.0677 17.8286 33.799 17.8286 33.2741 17.8286ZM36.5545 11.239H34.4989C33.865 11.239 33.3834 11.4234 33.1099 12.0856L29.1626 21.4436H31.951C31.951 21.4436 32.4101 20.1841 32.5087 19.9128C32.8146 19.9128 35.5272 19.9128 35.9207 19.9128C35.997 20.2711 36.2378 21.4436 36.2378 21.4436H38.6984L36.5545 11.239Z" fill="white" fill-opacity="0.5"/>
<path d="M15.2307 11.239L12.6281 18.1976L12.3437 16.7863C11.8626 15.1579 10.3535 13.3886 8.66956 12.5089L11.0534 21.4329H13.8636L18.0407 11.239H15.2307Z" fill="white" fill-opacity="0.5"/>
<path d="M10.2114 11.239H5.93579L5.89204 11.4451C9.22731 12.292 11.4362 14.3333 12.3437 16.7868L11.4142 12.0968C11.2612 11.445 10.791 11.2605 10.2114 11.239Z" fill="white" fill-opacity="0.5"/>
</svg>
